<svg width="40" height="40" viewBox="0 0 40 40" fill="none" xmlns="http://www.w3.org/2000/svg">
<circle cx="19.544" cy="19.544" r="19.544" fill="#163300"/>
<path fill-rule="evenodd" clip-rule="evenodd" d="M19.9999 10C18.5969 10 16.8809 10.513 15.8679 10.8655C15.3739 11.0375 15.1264 11.574 15.2899 12.0705L16.3639 15.331C16.0845 15.9404 15.9627 16.6102 16.0098 17.279C16.0568 17.9477 16.2712 18.5939 16.6333 19.1582C16.9953 19.7224 17.4933 20.1867 18.0816 20.5082C18.6699 20.8297 19.3295 20.9982 19.9999 20.9982C20.6703 20.9982 21.33 20.8297 21.9182 20.5082C22.5065 20.1867 23.0045 19.7224 23.3666 19.1582C23.7286 18.5939 23.943 17.9477 23.99 17.279C24.0371 16.6102 23.9153 15.9404 23.6359 15.331L24.7099 12.071C24.8734 11.574 24.6259 11.0375 24.1319 10.866C23.1184 10.5125 21.4029 10 19.9999 10ZM17.1899 16.2125C19.0684 15.441 20.9314 15.441 22.8099 16.2125C22.8399 16.2248 22.8709 16.2342 22.9029 16.2405C23.0184 16.6841 23.0307 17.1482 22.9388 17.5973C22.847 18.0463 22.6535 18.4684 22.3732 18.831C22.0929 19.1936 21.7332 19.4872 21.3217 19.6892C20.9103 19.8912 20.458 19.9962 19.9997 19.9962C19.5413 19.9962 19.089 19.8912 18.6776 19.6892C18.2662 19.4872 17.9065 19.1936 17.6261 18.831C17.3458 18.4684 17.1523 18.0463 17.0605 17.5973C16.9687 17.1482 16.9809 16.6841 17.0964 16.2405C17.1284 16.2342 17.1596 16.2248 17.1899 16.2125ZM20.4999 12.5H21.4999V13.5H20.4999V14.5H19.4999V13.5H18.4999V12.5H19.4999V11.5H20.4999V12.5Z" fill="#80E142"/>
<path fill-rule="evenodd" clip-rule="evenodd" d="M19.425 23.0965L16.44 21C16.44 21 11 22.6965 11 24.7335V28H29V24.7335C29 22.6965 23.5605 21 23.5605 21L20.5745 23.0965C20.4062 23.2146 20.2056 23.278 20 23.278C19.7944 23.278 19.5933 23.2146 19.425 23.0965ZM24 23H25V24H26V25H25V26H24V25H23V24H24V23Z" fill="#80E142"/>
</svg>
