<svg width="23" height="21" viewBox="0 0 23 21" fill="none" xmlns="http://www.w3.org/2000/svg">
<path d="M1.72615 0.725983H21.7973C22.0931 0.725983 22.3767 0.843462 22.5858 1.05258C22.7949 1.26169 22.9124 1.54531 22.9124 1.84105V19.6821C22.9124 19.9778 22.7949 20.2614 22.5858 20.4706C22.3767 20.6797 22.0931 20.7972 21.7973 20.7972H1.72615C1.43042 20.7972 1.14679 20.6797 0.937679 20.4706C0.728564 20.2614 0.611084 19.9778 0.611084 19.6821V1.84105C0.611084 1.54531 0.728564 1.26169 0.937679 1.05258C1.14679 0.843462 1.43042 0.725983 1.72615 0.725983ZM11.8286 10.4081L4.67884 4.33656L3.23483 6.03592L11.8431 13.3452L20.2964 6.03035L18.8379 4.34325L11.8286 10.4081Z" fill="#163300"/>
</svg>
