<svg width="16" height="23" viewBox="0 0 16 23" fill="none" xmlns="http://www.w3.org/2000/svg">
<path d="M15.0543 16.3806C13.8365 16.1659 12.6964 15.7424 11.6659 15.1604C11.5048 15.0668 11.3214 15.025 11.1366 15.0395C10.9517 15.0541 10.7728 15.1246 10.6203 15.2429L8.69124 17.0935C6.14608 15.1434 4.00735 11.9306 3.16856 8.52442L5.41487 7.07451C5.73543 6.81966 5.8888 6.41301 5.84646 6.01632C5.69122 4.75458 5.72941 3.43798 5.96332 2.11141C6.06602 1.52902 5.70606 0.965127 5.17143 0.870856L1.7458 0.266826C1.21117 0.172556 0.521986 0.317925 0.379358 1.12681C-1.38733 11.1462 4.79775 20.8218 13.9856 22.4418C14.6885 22.5658 15.0855 21.9352 15.1901 21.342L15.8462 17.6211C15.9489 17.0387 15.5889 16.4749 15.0543 16.3806Z" fill="#163300"/>
</svg>
