<svg width="32" height="33" viewBox="0 0 32 33" fill="none" xmlns="http://www.w3.org/2000/svg">
<path d="M16 2.48779C13.2311 2.48779 10.5243 3.30888 8.22202 4.84722C5.91973 6.38556 4.12532 8.57206 3.06569 11.1302C2.00607 13.6884 1.72882 16.5033 2.26901 19.2191C2.80921 21.9348 4.14258 24.4294 6.10051 26.3873C8.05845 28.3452 10.553 29.6786 13.2687 30.2188C15.9845 30.759 18.7994 30.4817 21.3576 29.4221C23.9157 28.3625 26.1022 26.5681 27.6406 24.2658C29.1789 21.9635 30 19.2567 30 16.4878C30 12.7748 28.525 9.21381 25.8995 6.5883C23.274 3.96279 19.713 2.48779 16 2.48779ZM23.447 17.3828L11.447 23.3828C11.2945 23.459 11.1251 23.4949 10.9548 23.4872C10.7845 23.4795 10.619 23.4284 10.474 23.3387C10.329 23.249 10.2093 23.1238 10.1264 22.9749C10.0434 22.8259 9.99993 22.6583 10 22.4878V10.4878C10.0001 10.3174 10.0437 10.1499 10.1268 10.0011C10.2098 9.85227 10.3294 9.72716 10.4744 9.6376C10.6194 9.54804 10.7848 9.49701 10.955 9.48934C11.1252 9.48167 11.2946 9.51763 11.447 9.59379L23.447 15.5938C23.6129 15.6769 23.7524 15.8046 23.8498 15.9625C23.9473 16.1204 23.9989 16.3022 23.9989 16.4878C23.9989 16.6733 23.9473 16.8552 23.8498 17.0131C23.7524 17.171 23.6129 17.2987 23.447 17.3818" fill="white"/>
</svg>
